<?xml version="1.0" encoding="UTF-8"?>
<svg version="1.1" xmlns="http://www.w3.org/2000/svg" width="93" height="220">
<path d="M0 0 C1.57043101 0.01330874 3.14079971 0.03717648 4.7109375 0.0703125 C5.51273438 0.07933594 6.31453125 0.08835938 7.140625 0.09765625 C9.12252273 0.12125027 11.10426731 0.15712185 13.0859375 0.1953125 C14.14230593 3.36441778 14.21278215 5.60778895 14.21533203 8.93603516 C14.21848419 10.11380524 14.22163635 11.29157532 14.22488403 12.5050354 C14.2228598 13.77696747 14.22083557 15.04889954 14.21875 16.359375 C14.22018509 18.3138002 14.22018509 18.3138002 14.22164917 20.30770874 C14.2231227 23.06322415 14.22098198 25.81870711 14.21630859 28.57421875 C14.21060028 32.11306642 14.21389942 35.65183844 14.21988106 39.19068336 C14.224353 42.55942006 14.22122722 45.92813615 14.21875 49.296875 C14.22077423 50.57285553 14.22279846 51.84883606 14.22488403 53.16348267 C14.22173187 54.33494843 14.21857971 55.50641418 14.21533203 56.71337891 C14.21453644 57.75023834 14.21374084 58.78709778 14.21292114 59.8553772 C14.0859375 62.1953125 14.0859375 62.1953125 13.0859375 63.1953125 C11.67023627 63.28182861 10.2503425 63.30236154 8.83203125 63.29296875 C7.97802734 63.28974609 7.12402344 63.28652344 6.24414062 63.28320312 C5.34630859 63.27482422 4.44847656 63.26644531 3.5234375 63.2578125 C2.62173828 63.25330078 1.72003906 63.24878906 0.79101562 63.24414062 C-1.44407564 63.23231475 -3.67903687 63.2158347 -5.9140625 63.1953125 C-5.96035196 55.27645672 -5.99591432 47.35765724 -6.01768684 39.43869972 C-6.02813524 35.761819 -6.04231352 32.08503067 -6.06494141 28.40820312 C-6.08663241 24.86151595 -6.09862317 21.31491778 -6.10381699 17.7681694 C-6.1075195 16.41333998 -6.11474939 15.05851556 -6.12552261 13.70372391 C-6.13998698 11.80985493 -6.14087899 9.91589686 -6.14111328 8.02197266 C-6.14777512 6.40314682 -6.14777512 6.40314682 -6.15457153 4.75161743 C-5.73686376 0.31191543 -4.30693164 0.21491675 0 0 Z " fill="#2875B0" transform="translate(25.9140625,35.8046875)"/>
<path d="M0 0 C2.97922593 -0.02683987 5.95821295 -0.04676037 8.9375 -0.0625 C9.78763672 -0.07087891 10.63777344 -0.07925781 11.51367188 -0.08789062 C12.32255859 -0.09111328 13.13144531 -0.09433594 13.96484375 -0.09765625 C14.7137085 -0.10289307 15.46257324 -0.10812988 16.23413086 -0.11352539 C18 0 18 0 19 1 C19.12938645 2.44455582 19.19109275 3.89526346 19.22460938 5.34521484 C19.24712769 6.2706308 19.269646 7.19604675 19.29284668 8.14950562 C19.36395193 12.42592397 19.42149232 16.70216188 19.45996094 20.97900391 C19.48644513 23.225316 19.52723252 25.47150945 19.58300781 27.71728516 C20.16127048 51.27626358 20.16127048 51.27626358 12 60 C11.61521484 60.74685059 11.23042969 61.49370117 10.83398438 62.26318359 C8.50108446 64.47248205 7.46232257 64.24896129 4.3125 64.25 C2.8740202 64.18576167 1.43583001 64.10836453 0 64 C-0.15371555 55.95084699 -0.30189705 47.90161947 -0.4429636 39.85223579 C-0.50863748 36.11481259 -0.57623581 32.37744464 -0.64819336 28.64013672 C-0.71753258 25.03517435 -0.78186742 21.43015459 -0.84269524 17.82503891 C-0.86681885 16.44786192 -0.89276262 15.07071559 -0.92053413 13.69360733 C-0.95904661 11.76864694 -0.99055769 9.8435503 -1.02172852 7.91845703 C-1.04171402 6.82147491 -1.06169952 5.7244928 -1.08229065 4.5942688 C-1 2 -1 2 0 0 Z " fill="#2573B1" transform="translate(43,36)"/>
<path d="M0 0 C8.25 0 16.5 0 25 0 C25 7.26 25 14.52 25 22 C24.01 22.33 23.02 22.66 22 23 C21.10645095 24.8870506 21.10645095 24.8870506 20.5625 27.25 C20.32015625 28.13945312 20.0778125 29.02890625 19.828125 29.9453125 C19.55484375 30.95335937 19.2815625 31.96140625 19 33 C18.27892173 35.37746822 17.54969454 37.75247956 16.8125 40.125 C16.46832031 41.24132812 16.12414062 42.35765625 15.76953125 43.5078125 C15.51558594 44.33023438 15.26164062 45.15265625 15 46 C13.35 46 11.7 46 10 46 C7.71366767 40.10366925 5.69980665 34.13693349 3.80200195 28.10522461 C2.84879983 25.16132402 2.22008873 23.22008873 0 21 C-0.22705078 18.84521484 -0.22705078 18.84521484 -0.1953125 16.2109375 C-0.19031738 15.36321777 -0.18532227 14.51549805 -0.18017578 13.64208984 C-0.16196777 12.5639502 -0.14375977 11.48581055 -0.125 10.375 C-0.08375 6.95125 -0.0425 3.5275 0 0 Z " fill="#2273B1" transform="translate(28,159)"/>
<path d="M0 0 C3.6033983 0.47167124 5.48498679 1.17158318 8.3125 3.43359375 C10.20929886 5.93391953 10.33747913 7.10568584 10.09765625 10.25390625 C9.18398622 13.95404261 7.87979523 15.64793467 5.375 18.49609375 C4.56933594 19.43453125 3.76367188 20.37296875 2.93359375 21.33984375 C2.50675293 21.83613281 2.07991211 22.33242187 1.64013672 22.84375 C-1.15037499 26.18538521 -3.7278102 29.70006159 -6.32397461 33.19360352 C-8.32052176 35.83629558 -9.89704347 37.5732894 -12.6875 39.43359375 C-17.59237343 39.98736978 -19.58729388 40.18998546 -23.6875 37.37109375 C-25.6875 34.43359375 -25.6875 34.43359375 -26.4375 31.24609375 C-25.35167339 25.72647516 -22.40436363 21.61296303 -18.6875 17.43359375 C-18.0275 17.43359375 -17.3675 17.43359375 -16.6875 17.43359375 C-16.46449219 16.73878906 -16.24148437 16.04398438 -16.01171875 15.328125 C-14.37233702 11.74469768 -12.10649145 9.02385757 -9.5 6.12109375 C-9.04302734 5.57130859 -8.58605469 5.02152344 -8.11523438 4.45507812 C-5.43587419 1.46355948 -4.03510064 0.47446628 0 0 Z " fill="#2575B2" transform="translate(75.6875,78.56640625)"/>
<path d="M0 0 C0.75934341 -0.0066568 1.51868683 -0.0133136 2.30104065 -0.02017212 C3.90387558 -0.03027737 5.50675239 -0.0349898 7.10961914 -0.03466797 C9.55490726 -0.03904193 11.99839029 -0.07538238 14.44335938 -0.11328125 C16.0039001 -0.11914986 17.56444937 -0.12311896 19.125 -0.125 C19.85222763 -0.13937103 20.57945526 -0.15374207 21.32872009 -0.16854858 C24.91702662 -0.13642964 26.98593137 0.24753746 30.06274414 2.14990234 C32.92921766 5.18268078 33.20141555 7.20290741 33.12890625 11.3359375 C31.94140625 14.2109375 31.94140625 14.2109375 29.12890625 16.3359375 C20.97406058 17.72846657 12.44464894 17.54613886 4.19140625 17.5859375 C3.09505859 17.6065625 1.99871094 17.6271875 0.86914062 17.6484375 C-0.71737305 17.65617187 -0.71737305 17.65617187 -2.3359375 17.6640625 C-3.28073975 17.6734082 -4.22554199 17.68275391 -5.19897461 17.69238281 C-8.41727164 17.26308051 -10.26863033 16.25238172 -12.87109375 14.3359375 C-14.37109375 11.5234375 -14.37109375 11.5234375 -14.87109375 8.3359375 C-13.79693811 5.23282119 -12.96831215 3.11290724 -10.24584961 1.18505859 C-6.86038066 -0.02545451 -3.55237403 0.0108417 0 0 Z " fill="#2174B2" transform="translate(29.87109375,120.6640625)"/>
<path d="M0 0 C0.78153946 -0.00619858 1.56307892 -0.01239716 2.36830139 -0.01878357 C4.01822669 -0.02587478 5.66822365 -0.0227198 7.31811523 -0.01000977 C9.83647065 0.00384471 12.3510997 -0.03020351 14.86914062 -0.06835938 C16.47526132 -0.06931077 18.08138665 -0.06745066 19.6875 -0.0625 C20.43660141 -0.07575821 21.18570282 -0.08901642 21.95750427 -0.10267639 C25.93206538 -0.03226434 27.73589612 0.42941127 30.89672852 2.91430664 C32.91015625 5.56640625 32.91015625 5.56640625 33.34765625 8.62890625 C32.93099263 11.42650487 32.47076883 13.22548739 30.91015625 15.56640625 C27.84808035 17.0974442 24.60104415 16.8693619 21.234375 16.98828125 C20.09111504 17.03012543 20.09111504 17.03012543 18.92475891 17.07281494 C17.31003994 17.12924038 15.69522068 17.18285445 14.08032227 17.23388672 C11.6172153 17.31575614 9.15561462 17.41937423 6.69335938 17.5234375 C5.1237423 17.57557273 3.55408101 17.62639636 1.984375 17.67578125 C0.88412239 17.72711212 0.88412239 17.72711212 -0.23835754 17.77947998 C-4.74907917 17.89011791 -7.53028861 17.3878199 -11.08984375 14.56640625 C-13.08984375 11.56640625 -13.08984375 11.56640625 -12.96484375 8.12890625 C-11.14641135 0.72528861 -7.01231531 -0.04630406 0 0 Z " fill="#2574B4" transform="translate(30.08984375,139.43359375)"/>
<path d="M0 0 C1.04607422 -0.020625 2.09214844 -0.04125 3.16992188 -0.0625 C4.18248047 -0.06765625 5.19503906 -0.0728125 6.23828125 -0.078125 C7.62527222 -0.09214355 7.62527222 -0.09214355 9.0402832 -0.10644531 C12.22349124 0.32217073 14.09830431 1.38029403 16.6875 3.25 C18.23336876 6.34173752 17.98109521 8.84429552 17.6875 12.25 C15.82041495 14.61497439 14.36688569 15.91030715 11.6875 17.25 C7.75680842 17.57248898 3.81728381 17.57442843 -0.125 17.625 C-1.21876953 17.66238281 -2.31253906 17.69976562 -3.43945312 17.73828125 C-11.50369692 17.82673731 -11.50369692 17.82673731 -15.5390625 14.94921875 C-17.86476806 11.40943341 -17.99272239 9.40691463 -17.3125 5.25 C-12.46702119 -0.88760649 -7.26952525 0.03543949 0 0 Z " fill="#2272B4" transform="translate(29.3125,101.75)"/>
<path d="M0 0 C1.58246707 -0.08153933 3.16616273 -0.13943557 4.75 -0.1875 C6.07257812 -0.23970703 6.07257812 -0.23970703 7.421875 -0.29296875 C10.54204136 0.06159561 11.8445973 0.72485271 14 3 C14.390625 5.26171875 14.390625 5.26171875 14.25 7.6875 C14.21390625 8.49574219 14.1778125 9.30398437 14.140625 10.13671875 C14.09421875 10.75160156 14.0478125 11.36648437 14 12 C11.04189524 13.47905238 8.0452845 13.12190903 4.8046875 13.09765625 C4.09724396 13.0962413 3.38980042 13.09482635 2.66091919 13.09336853 C0.39890331 13.087766 -1.86301398 13.07521318 -4.125 13.0625 C-5.65755065 13.05748532 -7.19010286 13.05292236 -8.72265625 13.04882812 C-12.48180888 13.03779577 -16.24088772 13.02052952 -20 13 C-19.34 12.01 -18.68 11.02 -18 10 C-16.68 10 -15.36 10 -14 10 C-13.9175 9.38125 -13.835 8.7625 -13.75 8.125 C-13 6 -13 6 -10.9375 4.75 C-10.298125 4.5025 -9.65875 4.255 -9 4 C-9 3.34 -9 2.68 -9 2 C-4.545 1.505 -4.545 1.505 0 1 C0 0.67 0 0.34 0 0 Z " fill="#2277B6" transform="translate(46,122)"/>
<path d="M0 0 C2.12446941 -0.00219294 4.24842472 -0.02038068 6.37280273 -0.03930664 C7.71980617 -0.04223954 9.06681206 -0.04422503 10.41381836 -0.04516602 C12.25472046 -0.05132935 12.25472046 -0.05132935 14.1328125 -0.05761719 C17.06616211 0.18530273 17.06616211 0.18530273 19.06616211 2.18530273 C18.69116211 4.81030273 18.69116211 4.81030273 18.06616211 7.18530273 C13.40309197 7.23467552 8.74017338 7.27100901 4.0769043 7.29516602 C2.48996328 7.30523461 0.90304086 7.3188904 -0.68383789 7.33618164 C-2.96253036 7.36039275 -5.24097795 7.37177696 -7.51977539 7.38061523 C-8.23128754 7.39093781 -8.94279968 7.40126038 -9.6758728 7.41189575 C-11.43015454 7.41229695 -13.18380498 7.30732482 -14.93383789 7.18530273 C-15.59383789 6.52530273 -16.25383789 5.86530273 -16.93383789 5.18530273 C-16.74633789 3.12280273 -16.74633789 3.12280273 -15.93383789 1.18530273 C-10.81702589 -0.52030126 -5.35575472 -0.00062153 0 0 Z " fill="#2D74A9" transform="translate(39.933837890625,25.814697265625)"/>
<path d="M0 0 C0.75934341 -0.0066568 1.51868683 -0.0133136 2.30104065 -0.02017212 C3.90387558 -0.03027737 5.50675239 -0.0349898 7.10961914 -0.03466797 C9.55490726 -0.03904193 11.99839029 -0.07538238 14.44335938 -0.11328125 C16.0039001 -0.11914986 17.56444937 -0.12311896 19.125 -0.125 C19.85222763 -0.13937103 20.57945526 -0.15374207 21.32872009 -0.16854858 C24.91126121 -0.13648124 26.99163012 0.25183322 30.07055664 2.13818359 C32.85212069 5.10813254 33.05470134 7.3288724 33.12890625 11.3359375 C32.46890625 11.9959375 31.80890625 12.6559375 31.12890625 13.3359375 C30.99869792 11.35026042 30.86848958 9.36458333 30.73828125 7.37890625 C29.86595584 4.45437938 28.78708998 3.83564179 26.12890625 2.3359375 C23.36625461 2.07935301 20.83815066 1.98568156 18.08203125 2.04296875 C16.92522858 2.04933601 16.92522858 2.04933601 15.74505615 2.05583191 C13.2893131 2.07258367 10.83439996 2.11022811 8.37890625 2.1484375 C6.71094938 2.16348893 5.0429796 2.17717653 3.375 2.18945312 C-0.70734953 2.22247556 -4.78908107 2.27423266 -8.87109375 2.3359375 C-9.08765625 3.2640625 -9.08765625 3.2640625 -9.30859375 4.2109375 C-9.87109375 6.3359375 -9.87109375 6.3359375 -10.87109375 8.3359375 C-11.53109375 8.3359375 -12.19109375 8.3359375 -12.87109375 8.3359375 C-13.20109375 9.6559375 -13.53109375 10.9759375 -13.87109375 12.3359375 C-15.13180184 9.356082 -14.86229283 8.31277719 -13.68359375 5.2109375 C-10.25495081 -0.22759958 -6.02894021 0.01840008 0 0 Z " fill="#417098" transform="translate(29.87109375,120.6640625)"/>
<path d="M0 0 C0.66 0.33 1.32 0.66 2 1 C1.01 1.33 0.02 1.66 -1 2 C-1.02712066 3.43739513 -1.04645067 4.87493863 -1.0625 6.3125 C-1.07410156 7.11300781 -1.08570313 7.91351563 -1.09765625 8.73828125 C-1.09657855 11.16861334 -1.09657855 11.16861334 0 14 C8.25 14 16.5 14 25 14 C25.33 13.01 25.66 12.02 26 11 C26.66 11.33 27.32 11.66 28 12 C28 11.01 28 10.02 28 9 C27.34 8.67 26.68 8.34 26 8 C27.65 6.68 29.3 5.36 31 4 C31.49065421 10.37850467 31.49065421 10.37850467 29.125 13.375 C24.27070519 17.0871078 19.101173 16.29913947 13.1875 16.375 C12.09373047 16.41238281 10.99996094 16.44976562 9.87304688 16.48828125 C1.80880308 16.57673731 1.80880308 16.57673731 -2.2265625 13.69921875 C-4.55226806 10.15943341 -4.68022239 8.15691463 -4 4 C-2 1.5625 -2 1.5625 0 0 Z " fill="#3871A2" transform="translate(16,103)"/>
<path d="M0 0 C0.33 0 0.66 0 1 0 C1.05399736 1.45792884 1.09279177 2.91642712 1.125 4.375 C1.14820313 5.18710938 1.17140625 5.99921875 1.1953125 6.8359375 C1 9 1 9 -1 11 C-7.76429054 12.24051003 -14.8240525 12.09263252 -21.6875 12.125 C-22.74831787 12.13200928 -22.74831787 12.13200928 -23.83056641 12.13916016 C-28.87690706 12.12309294 -28.87690706 12.12309294 -30 11 C-31.68183948 10.76712992 -33.3712416 10.58735834 -35.0625 10.4375 C-35.98160156 10.35371094 -36.90070312 10.26992187 -37.84765625 10.18359375 C-38.55792969 10.12300781 -39.26820312 10.06242188 -40 10 C-40 9.67 -40 9.34 -40 9 C-26.8 8.67 -13.6 8.34 0 8 C0 5.36 0 2.72 0 0 Z " fill="#286FB0" transform="translate(60,126)"/>
<path d="M0 0 C8.25 0 16.5 0 25 0 C25 7.26 25 14.52 25 22 C24.01 22.33 23.02 22.66 22 23 C21.67 24.65 21.34 26.3 21 28 C20.67 28 20.34 28 20 28 C19.8125 25.6875 19.8125 25.6875 20 23 C20.73246948 22.31200317 20.73246948 22.31200317 21.47973633 21.61010742 C23.44129929 19.53262103 23.41703646 18.37231357 23.51171875 15.55078125 C23.54483154 14.78677002 23.57794434 14.02275879 23.61206055 13.2355957 C23.64940308 11.78866333 23.64940308 11.78866333 23.6875 10.3125 C23.790625 7.239375 23.89375 4.16625 24 1 C16.41 1 8.82 1 1 1 C1.103125 4.0525 1.20625 7.105 1.3125 10.25 C1.33739502 11.20551758 1.36229004 12.16103516 1.38793945 13.14550781 C1.58750616 17.73505662 1.77211547 20.50312509 5 24 C5.6875 27.75 5.6875 27.75 6 31 C4.05744459 28.08616689 2.56368219 25.12736438 1 22 C0.67 21.67 0.34 21.34 0 21 C-0.08685603 19.43827255 -0.10702219 17.87270656 -0.09765625 16.30859375 C-0.09515869 15.45837646 -0.09266113 14.60815918 -0.09008789 13.73217773 C-0.08098389 12.64493408 -0.07187988 11.55769043 -0.0625 10.4375 C-0.041875 6.993125 -0.02125 3.54875 0 0 Z " fill="#3F7397" transform="translate(28,159)"/>
<path d="M0 0 C1 3 1 3 0 6 C-1.98260426 7.68732277 -3.9832342 9.35366057 -6 11 C-8.1519437 14.22791555 -8.20086443 15.28400809 -8 19 C-6.68 19 -5.36 19 -4 19 C-4.185625 19.61875 -4.37125 20.2375 -4.5625 20.875 C-5.23686176 23.04160178 -5.23686176 23.04160178 -4 25 C-3.34 25 -2.68 25 -2 25 C-1.67 24.34 -1.34 23.68 -1 23 C1.31 23 3.62 23 6 23 C3.49270723 26.34305702 2.28478421 26.95931654 -1.9375 27.5625 C-5.2447912 27.37704442 -6.11351564 26.921958 -9 24.9375 C-11 22 -11 22 -11.75 18.8125 C-10.66417339 13.29288141 -7.71686363 9.17936928 -4 5 C-3.34 5 -2.68 5 -2 5 C-1.34 3.35 -0.68 1.7 0 0 Z " fill="#3473A6" transform="translate(61,91)"/>
<path d="M0 0 C0.66 0.33 1.32 0.66 2 1 C2.17754126 4.90590763 2.20731737 7.68902394 0 11 C-2.97359449 12.48679725 -5.66299179 12.11112605 -8.9765625 12.09765625 C-9.66181 12.0962413 -10.3470575 12.09482635 -11.05307007 12.09336853 C-13.24375761 12.08776675 -15.4343433 12.07521406 -17.625 12.0625 C-19.10937352 12.05748522 -20.59374865 12.05292228 -22.078125 12.04882812 C-25.71878315 12.03779677 -29.35938164 12.02053099 -33 12 C-33 11.67 -33 11.34 -33 11 C-31.75911621 10.96241577 -31.75911621 10.96241577 -30.49316406 10.92407227 C-26.74528808 10.80803651 -22.99765875 10.685344 -19.25 10.5625 C-17.29707031 10.50352539 -17.29707031 10.50352539 -15.3046875 10.44335938 C-14.05429687 10.40146484 -12.80390625 10.35957031 -11.515625 10.31640625 C-10.36352539 10.27974854 -9.21142578 10.24309082 -8.02441406 10.20532227 C-5.52259776 10.03547826 -3.38908832 9.72031525 -1 9 C-1 8.01 -1 7.02 -1 6 C-2.32 6 -3.64 6 -5 6 C-3.63016497 2.83884224 -3.0109362 2.0072908 0 0 Z " fill="#3675A6" transform="translate(61,144)"/>
<path d="M0 0 C0.33 0 0.66 0 1 0 C1 16.17 1 32.34 1 49 C4.465 48.505 4.465 48.505 8 48 C8.66 46.35 9.32 44.7 10 43 C10.99 43.33 11.98 43.66 13 44 C11.5625 47 11.5625 47 9 50 C6.03 50 3.06 50 0 50 C0 33.5 0 17 0 0 Z " fill="#376A90" transform="translate(43,50)"/>
<path d="M0 0 C2.49645479 2.49645479 3.05707869 4.81743317 4.12109375 8.125 C4.96788846 10.35267006 4.96788846 10.35267006 8 12 C8.99 8.7 9.98 5.4 11 2 C12.18414294 5.55242882 11.69535532 6.69830562 10.5625 10.1875 C10.27503906 11.08855469 9.98757812 11.98960937 9.69140625 12.91796875 C9.46324219 13.60503906 9.23507813 14.29210937 9 15 C7.35 15 5.7 15 4 15 C1.94637945 9.91059256 0.56820748 5.45479185 0 0 Z " fill="#3574A2" transform="translate(34,190)"/>
<path d="M0 0 C1.12591553 0.00523682 2.25183105 0.01047363 3.41186523 0.01586914 C4.62680664 0.0190918 5.84174805 0.02231445 7.09350586 0.02563477 C8.37290039 0.03401367 9.65229492 0.04239258 10.97045898 0.05102539 C12.2537207 0.05553711 13.53698242 0.06004883 14.85913086 0.06469727 C18.04211921 0.07652994 21.22501661 0.09301471 24.40795898 0.11352539 C24.40795898 0.44352539 24.40795898 0.77352539 24.40795898 1.11352539 C16.15795898 1.11352539 7.90795898 1.11352539 -0.59204102 1.11352539 C-0.92204102 2.43352539 -1.25204102 3.75352539 -1.59204102 5.11352539 C-1.92204102 5.77352539 -2.25204102 6.43352539 -2.59204102 7.11352539 C-3.25204102 7.11352539 -3.91204102 7.11352539 -4.59204102 7.11352539 C-4.92204102 8.43352539 -5.25204102 9.75352539 -5.59204102 11.11352539 C-6.27954102 9.48852539 -6.27954102 9.48852539 -6.59204102 7.11352539 C-3.59131253 0.15729117 -3.59131253 0.15729117 0 0 Z " fill="#3273A4" transform="translate(21.592041015625,121.886474609375)"/>
<path d="M0 0 C0 3.10551666 -0.5393715 4.35261084 -2 7 C-1.01 7.33 -0.02 7.66 1 8 C0.01 8.495 0.01 8.495 -1 9 C-0.37466625 11.52363988 -0.37466625 11.52363988 1 14 C3.54775306 14.89386164 3.54775306 14.89386164 6 15 C3 16 3 16 0.4375 14.75 C-2 13 -2 13 -4 10 C-3.66947207 3.83014537 -3.66947207 3.83014537 -1.4375 1.0625 C-0.7259375 0.5365625 -0.7259375 0.5365625 0 0 Z " fill="#3B77A5" transform="translate(21,141)"/>
<path d="M0 0 C0.33 0 0.66 0 1 0 C1.05399736 1.45792884 1.09279177 2.91642712 1.125 4.375 C1.14820313 5.18710938 1.17140625 5.99921875 1.1953125 6.8359375 C1 9 1 9 -1 11 C-3.6015625 11.1953125 -3.6015625 11.1953125 -6.625 11.125 C-8.12933594 11.09792969 -8.12933594 11.09792969 -9.6640625 11.0703125 C-10.43492188 11.04710937 -11.20578125 11.02390625 -12 11 C-12 10.34 -12 9.68 -12 9 C-6.06 8.505 -6.06 8.505 0 8 C0 5.36 0 2.72 0 0 Z " fill="#2F70A1" transform="translate(60,126)"/>
<path d="M0 0 C0.66 0.33 1.32 0.66 2 1 C1.01 1.33 0.02 1.66 -1 2 C-1.05447047 3.41623216 -1.09300508 4.83308191 -1.125 6.25 C-1.15980469 7.43335937 -1.15980469 7.43335937 -1.1953125 8.640625 C-0.9828378 11.20731941 -0.28654105 12.7916067 1 15 C-2.875 13.25 -2.875 13.25 -4 11 C-4.5824233 4.70982839 -4.5824233 4.70982839 -2 1.5625 C-1.34 1.046875 -0.68 0.53125 0 0 Z " fill="#4379A6" transform="translate(16,103)"/>
<path d="M0 0 C0.99 0.33 1.98 0.66 3 1 C0.36 4.3 -2.28 7.6 -5 11 C-6 7 -6 7 -5 5 C-4.01 5 -3.02 5 -2 5 C-2 4.34 -2 3.68 -2 3 C-1.34 3 -0.68 3 0 3 C0 2.01 0 1.02 0 0 Z " fill="#3D7AA8" transform="translate(77,97)"/>
<path d="M0 0 C1.32 0 2.64 0 4 0 C4.33 1.32 4.66 2.64 5 4 C2.6875 4.625 2.6875 4.625 0 5 C-0.99 4.34 -1.98 3.68 -3 3 C-2.34 3 -1.68 3 -1 3 C-0.67 2.01 -0.34 1.02 0 0 Z " fill="#1B78BC" transform="translate(20,126)"/>
<path d="M0 0 C6.625 -0.25 6.625 -0.25 10 2 C5.98195309 2.84098656 2.98196457 3.05404945 -1 2 C-0.67 1.34 -0.34 0.68 0 0 Z " fill="#4377A7" transform="translate(72,79)"/>
<path d="M0 0 C0.66 0.33 1.32 0.66 2 1 C2 1.66 2 2.32 2 3 C5.3 3 8.6 3 12 3 C12 3.33 12 3.66 12 4 C4.73846154 5.35384615 4.73846154 5.35384615 1 3.5625 C0.34 3.046875 -0.32 2.53125 -1 2 C-0.67 1.34 -0.34 0.68 0 0 Z " fill="#3773A1" transform="translate(18,133)"/>
</svg>
